<svg id="Layer_1" data-name="Layer 1" xmlns="http://www.w3.org/2000/svg" viewBox="0 0 56.54 50.54"><defs><style>.cls-1{fill:#3445df;}.cls-2{fill:#ff4343;}</style></defs><path class="cls-1" d="M32.63,29,45.14,41.46A.67.67,0,0,0,46.28,41l.3-31.47a.66.66,0,0,1,.67-.66L59.67,9a.66.66,0,0,1,.66.67l-.45,47a.67.67,0,0,1-.67.66l-17.28-.17a.64.64,0,0,1-.49-.22L32.23,46.65h-.41L22.28,56.74a.67.67,0,0,1-.49.21L4.45,56.78a.66.66,0,0,1-.66-.67l.45-47a.66.66,0,0,1,.67-.66L15,8.56a3.06,3.06,0,0,1,3,3.1l-.28,29.07a.67.67,0,0,0,1.13.49L31.7,29A.68.68,0,0,1,32.63,29Z" transform="translate(-3.79 -6.77)"/><path class="cls-2" d="M42.25,33l-9.76-9.7a.49.49,0,0,0-.68,0L22,32.76a.25.25,0,0,1-.42-.17L21.81,7a.25.25,0,0,1,.25-.24l2.05,0L40.81,7a2,2,0,0,1,2,2.06L42.6,32.88A.21.21,0,0,1,42.25,33Z" transform="translate(-3.79 -6.77)"/><path class="cls-2" d="M24.11,6.81l-.06,6.3-2.3,0,0-2.84a3.58,3.58,0,0,0-2.45-3.43s0-.05,0-.05Z" transform="translate(-3.79 -6.77)"/></svg>